#!OML:ASF I:\golf\golf\golf 2\Subject 1\2002-09-07\Subject1.ASF
:FULLY-SPECIFIED
:DEGREES
159
root 1.27608 17.7782 -9.56534 10.3707 -3.90976 -5.44768
lowerback -2.97178 1.36352 -3.66893
upperback 2.10088 1.88099 3.26695
thorax 3.61493 0.800004 5.57113
lowerneck -15.5006 0.253792 0.672663
upperneck 41.122 3.11366 -6.79562
head 18.1242 0.411112 -2.71212
rclavicle 7.65321e-015 3.79679e-014
rhumerus -25.9075 3.02753 -84.3585
rradius 30.4028
rwrist -8.41149
rhand -19.1411 11.7797
rfingers 7.12502
rthumb 7.16892 -18.0788
lclavicle 7.65321e-015 3.79679e-014
lhumerus -27.4439 2.56115 84.4088
lradius 31.804
lwrist 3.75741
lhand -8.21888 31.3544
lfingers 7.12502
lthumb 17.6982 60.569
rfemur -22.6789 2.5389 18.2687
rtibia 37.5033
rfoot -15.7666 -5.71166
rtoes -1.31741
lfemur -18.0827 3.66033 -16.3665
ltibia 34.69
lfoot -21.6979 1.0217
ltoes -2.18237
160
root 1.29808 17.7772 -9.55899 10.3932 -3.80941 -5.40783
lowerback -3.01383 1.38807 -3.68948
upperback 2.19564 1.91582 3.25245
thorax 3.73304 0.811586 5.57353
lowerneck -15.5044 0.225651 0.636092
upperneck 41.18 3.09535 -6.80654
head 18.1587 0.397383 -2.71711
rclavicle -1.23743e-014 -2.18663e-015
rhumerus -25.7945 3.035 -84.2582
rradius 30.527
rwrist -8.502
rhand -19.3258 11.4107
rfingers 7.12502
rthumb 6.99067 -18.4539
lclavicle -1.23743e-014 -2.18663e-015
lhumerus -27.1988 2.59963 84.3642
lradius 31.7368
lwrist 3.71906
lhand -8.13299 31.5853
lfingers 7.12502
lthumb 17.7809 60.7924
rfemur -23.1521 2.29377 18.2234
rtibia 38.32
rfoot -15.4866 -5.94079
rtoes -3.13902
lfemur -18.0997 3.42584 -16.4712
ltibia 34.6748
lfoot -21.7564 1.02362
ltoes -1.80502
161
root 1.3177 17.7771 -9.5539 10.3818 -3.77127 -5.3501
lowerback -2.89191 1.42403 -3.72172
upperback 2.26527 1.96323 3.21692
thorax 3.73084 0.833492 5.55441
lowerneck -15.5493 0.219503 0.60561
upperneck 41.2393 3.10196 -6.79935
head 18.2066 0.39612 -2.71053
rclavicle -9.61621e-015 -2.28602e-015
rhumerus -25.7865 3.07255 -84.1917
rradius 30.7829
rwrist -8.6339
rhand -19.3503 11.381
rfingers 7.12502
rthumb 6.96705 -18.4843
lclavicle -9.61621e-015 -2.28602e-015
lhumerus -26.9832 2.60649 84.2664
lradius 31.716
lwrist 3.8675
lhand -8.02665 31.587
lfingers 7.12502
lthumb 17.8832 60.7848
rfemur -23.6242 2.04828 18.1812
rtibia 39.1676
rfoot -15.1847 -6.13851
rtoes -4.77713
lfemur -18.0893 3.28593 -16.5858
ltibia 34.6898
lfoot -21.8457 0.829532
ltoes -0.479909
162
root 1.32914 17.7787 -9.53626 10.179 -3.42825 -5.27637
lowerback -2.62311 1.31947 -3.85028
upperback 2.3597 1.82077 3.24387
thorax 3.69034 0.757678 5.64188
lowerneck -15.5528 0.239961 0.549791
upperneck 41.2456 3.16577 -6.8217
head 18.2166 0.409884 -2.69912
rclavicle 1.2014e-014 2.71838e-014
rhumerus -25.8221 3.28967 -84.1652
rradius 31.0128
rwrist -8.75242
rhand -19.3873 11.2509
rfingers 7.12502
rthumb 6.93125 -18.6157
lclavicle 1.2014e-014 2.71838e-014
lhumerus -26.9367 2.92195 84.0775
lradius 31.7665
lwrist 3.93594
lhand -7.97929 30.9763
lfingers 7.12502
lthumb 17.9288 60.1699
rfemur -23.782 1.81442 18.1997
rtibia 40.0695
rfoot -15.1134 -6.41885
rtoes -3.74276
lfemur -17.845 3.2263 -16.6082
ltibia 34.6819
lfoot -21.9844 0.298678
ltoes 0.418311
163
root 1.35341 17.7765 -9.53082 10.2227 -3.58168 -5.36411
lowerback -2.51283 1.36951 -3.73905
upperback 2.39213 1.87903 3.26441
thorax 3.6567 0.789784 5.59984
lowerneck -15.4864 0.25831 0.495685
upperneck 41.1819 3.24728 -6.91166
head 18.1696 0.423183 -2.71205
rclavicle -7.20594e-016 -1.19768e-014
rhumerus -25.7869 3.59119 -84.1304
rradius 31.1463
rwrist -8.86329
rhand -19.4239 11.1731
rfingers 7.12502
rthumb 6.89601 -18.6946
lclavicle -7.20594e-016 -1.19768e-014
lhumerus -26.8875 3.35398 83.9201
lradius 31.8004
lwrist 3.86066
lhand -8.01383 30.622
lfingers 7.12502
lthumb 17.8955 59.8186
rfemur -24.4072 1.84023 18.2185
rtibia 41.0433
rfoot -14.6465 -6.27488
rtoes -1.83254
lfemur -17.8558 3.36827 -16.6279
ltibia 34.6759
lfoot -21.9985 0.301212
ltoes 0.121292
164
root 1.3767 17.7727 -9.52887 10.2734 -3.61616 -5.39679
lowerback -2.45197 1.43503 -3.64294
upperback 2.46663 1.96127 3.24286
thorax 3.69302 0.831135 5.52604
lowerneck -15.474 0.230788 0.504245
upperneck 41.1148 3.22722 -6.97858
head 18.1272 0.40903 -2.74495
rclavicle -5.45415e-015 -1.09829e-014
rhumerus -25.6482 3.69157 -84.0422
rradius 31.2623
rwrist -9.04381
rhand -19.3195 11.2363
rfingers 7.12502
rthumb 6.99673 -18.6281
lclavicle -5.45415e-015 -1.09829e-014
lhumerus -26.6882 3.50142 83.8432
lradius 31.7425
lwrist 3.70169
lhand -7.9499 30.5432
lfingers 7.12502
lthumb 17.957 59.7342
rfemur -25.0848 1.79609 18.1921
rtibia 42.0631
rfoot -14.0948 -6.23277
rtoes -1.08565
lfemur -17.9252 3.51057 -16.6894
ltibia 34.667
lfoot -22.0199 0.239114
ltoes -0.0809537
165
root 1.39494 17.7702 -9.52333 10.2384 -3.49294 -5.3247
lowerback -2.34088 1.43388 -3.747
upperback 2.5965 1.95973 3.27151
thorax 3.7618 0.822283 5.61509
lowerneck -15.5607 0.215949 0.42314
upperneck 41.0584 3.24637 -7.00811
head 18.1192 0.39998 -2.73789
rclavicle -2.45375e-014 1.2424e-015
rhumerus -25.3701 3.81346 -83.8701
rradius 31.2832
rwrist -9.19519
rhand -19.1966 11.2631
rfingers 7.12502
rthumb 7.11541 -18.5973
lclavicle -2.45375e-014 1.2424e-015
lhumerus -26.4684 3.68627 83.8305
lradius 31.6903
lwrist 3.68771
lhand -7.95749 30.4876
lfingers 7.12502
lthumb 17.9497 59.6793
rfemur -25.635 1.68572 18.1055
rtibia 43.1231
rfoot -13.7738 -6.34436
rtoes -0.555608
lfemur -17.917 3.52153 -16.808
ltibia 34.6904
lfoot -22.0986 0.145157
ltoes -0.703821
166
root 1.40727 17.7674 -9.51282 10.1303 -3.26181 -5.24142
lowerback -2.11315 1.36768 -3.87123
upperback 2.69352 1.86914 3.29075
thorax 3.74132 0.771723 5.69665
lowerneck -15.6444 0.24869 0.332969
upperneck 41.0837 3.33418 -7.00381
head 18.1629 0.420358 -2.70493
rclavicle -2.08475e-014 -6.06293e-015
rhumerus -25.1751 3.98644 -83.7993
rradius 31.2329
rwrist -9.22593
rhand -19.1203 11.2239
rfingers 7.12502
rthumb 7.189 -18.634
lclavicle -2.08475e-014 -6.06293e-015
lhumerus -26.4122 3.84541 83.7378
lradius 31.7788
lwrist 3.92822
lhand -8.22288 30.4565
lfingers 7.12502
lthumb 17.6944 59.6714
rfemur -26.0499 1.53525 18.0523
rtibia 44.1953
rfoot -13.4059 -6.59266
rtoes -0.614765
lfemur -17.7952 3.38853 -16.8865
ltibia 34.7185
lfoot -22.1654 -0.0267632
ltoes -1.09848
167
root 1.421 17.7635 -9.50248 10.067 -3.15252 -5.22854
lowerback -1.8915 1.39312 -3.82699
upperback 2.70812 1.89794 3.21163
thorax 3.63069 0.791553 5.58174
lowerneck -15.53 0.242884 0.423097
upperneck 41.1073 3.29198 -6.99884
head 18.1431 0.420767 -2.72691
rclavicle 1.20513e-014 1.54058e-014
rhumerus -25.2333 4.02072 -83.86
rradius 31.2898
rwrist -9.27137
rhand -19.1804 11.1728
rfingers 7.12502
rthumb 7.13099 -18.687
lclavicle 1.20513e-014 1.54058e-014
lhumerus -26.5037 3.70564 83.5463
lradius 31.9567
lwrist 4.15672
lhand -8.34584 30.5113
lfingers 7.12502
lthumb 17.576 59.7368
rfemur -26.5684 1.44873 18.0404
rtibia 45.2608
rfoot -12.9306 -6.78941
rtoes -0.572078
lfemur -17.7022 3.30277 -16.9251
ltibia 34.7418
lfoot -22.2338 -0.178508
ltoes -0.565271
168
root 1.44089 17.7611 -9.49574 10.1509 -3.19262 -5.24482
lowerback -1.8666 1.4892 -3.77763
upperback 2.71125 2.02544 3.1653
thorax 3.60685 0.857994 5.50918
lowerneck -15.3237 0.198788 0.546344
upperneck 41.0201 3.19189 -7.04903
head 18.0303 0.398612 -2.7842
rclavicle 5.09386e-016 -1.28713e-014
rhumerus -25.2896 4.03331 -83.8179
rradius 31.4125
rwrist -9.32843
rhand -19.3255 11.1553
rfingers 7.12502
rthumb 6.99098 -18.7093
lclavicle 5.09386e-016 -1.28713e-014
lhumerus -26.5223 3.61457 83.4388
lradius 32.048
lwrist 4.17325
lhand -8.19643 30.6453
lfingers 7.12502
lthumb 17.7198 59.858
rfemur -27.3337 1.40073 18.0048
rtibia 46.3148
rfoot -12.4381 -6.84221
rtoes 0.382685
lfemur -17.7751 3.28027 -17.0039
ltibia 34.7447
lfoot -22.2793 -0.12387
ltoes -0.120056
169
root 1.45736 17.7613 -9.48802 10.1813 -3.0429 -5.18178
lowerback -1.82613 1.50345 -3.8851
upperback 2.78428 2.04646 3.18915
thorax 3.65355 0.86219 5.59699
lowerneck -15.2396 0.158308 0.597804
upperneck 40.8851 3.1529 -7.17022
head 17.9297 0.378336 -2.84884
rclavicle 4.08751e-015 -2.5345e-015
rhumerus -25.196 4.08306 -83.6608
rradius 31.4798
rwrist -9.36642
rhand -19.3208 11.1589
rfingers 7.12502
rthumb 6.99552 -18.7055
lclavicle 4.08751e-015 -2.5345e-015
lhumerus -26.4322 3.67093 83.4234
lradius 32.0764
lwrist 4.15165
lhand -8.0504 30.7556
lfingers 7.12502
lthumb 17.8603 59.9555
rfemur -28.0062 1.30859 17.9228
rtibia 47.354
rfoot -11.9529 -7.03513
rtoes 1.50107
lfemur -17.8028 3.18413 -17.1235
ltibia 34.7052
lfoot -22.2569 -0.127777
ltoes -0.0922772
